<svg xmlns="http://www.w3.org/2000/svg" width="43.766" height="22.938" viewBox="0 0 43.766 22.938">
  <g id="Group_968" data-name="Group 968" transform="translate(-1991.617 -1310.875)">
    <path id="Path_738" data-name="Path 738" d="M2035.383,1332.09a6,6,0,0,1-.726,1.175,1.973,1.973,0,0,1-2.549.157,4.51,4.51,0,0,1-.453-.388q-8.922-8.45-17.84-16.9c-.093-.088-.189-.172-.314-.287-.127.115-.252.224-.373.338q-8.919,8.449-17.839,16.9a2.091,2.091,0,0,1-3.219-.076,2.05,2.05,0,0,1,0-2.569,4.326,4.326,0,0,1,.411-.433q9.693-9.186,19.389-18.37a2.129,2.129,0,0,1,3.276.014q9.68,9.17,19.348,18.351a7.281,7.281,0,0,1,.891,1.319Z" fill="#fc4124 "/>
  </g>
</svg>
