<svg xmlns="http://www.w3.org/2000/svg" width="26.205" height="50" viewBox="0 0 26.205 50">
  <g id="Group_964" data-name="Group 964" transform="translate(-2098.795 -3435.825)">
    <path id="Path_734" data-name="Path 734" d="M2100.763,3485.825a6.911,6.911,0,0,1-1.342-.83,2.255,2.255,0,0,1-.179-2.912,5.075,5.075,0,0,1,.443-.518l19.306-20.381c.1-.106.2-.215.328-.358-.132-.145-.256-.288-.386-.426q-9.654-10.189-19.306-20.38a2.388,2.388,0,0,1,.087-3.678,2.342,2.342,0,0,1,2.934,0,4.963,4.963,0,0,1,.5.469q10.5,11.074,20.987,22.151a2.433,2.433,0,0,1-.017,3.743q-10.476,11.058-20.965,22.1a8.361,8.361,0,0,1-1.506,1.018Z"
     fill="	#ffffff"/>
  </g>
</svg>


