<?xml version="1.0" standalone="no"?>
<!DOCTYPE svg PUBLIC "-//W3C//DTD SVG 20010904//EN"
 "http://www.w3.org/TR/2001/REC-SVG-20010904/DTD/svg10.dtd">
<svg version="1.0" xmlns="http://www.w3.org/2000/svg"
 width="180.000000pt" height="180.000000pt" viewBox="0 0 180.000000 180.000000"
 preserveAspectRatio="xMidYMid meet">
<metadata>
Created by potrace 1.14, written by Peter Selinger 2001-2017
</metadata>
<g transform="translate(0.000000,180.000000) scale(0.100000,-0.100000)"
fill="#000000" stroke="none">
<path d="M670 1360 c0 -4 -11 -8 -25 -9 -55 -4 -65 -6 -65 -11 0 -3 -18 -6
-40 -7 -51 -3 -77 -17 -170 -89 l-75 -57 -88 -2 c-71 -1 -91 -4 -110 -20 -12
-11 -26 -18 -30 -17 -5 1 -6 -2 -2 -8 3 -5 1 -10 -4 -10 -16 0 -13 -76 3 -89
9 -7 13 -24 11 -42 -3 -20 0 -29 10 -29 16 0 14 54 -3 86 -6 11 -10 28 -9 39
2 21 31 55 47 55 5 0 10 4 10 10 0 5 17 7 38 4 65 -9 92 -10 92 -3 0 3 11 5
25 3 14 -1 31 3 38 9 28 28 157 121 169 123 7 2 22 5 33 7 26 6 111 19 150 22
17 2 30 4 30 5 0 5 98 10 182 10 81 0 123 -3 223 -15 14 -1 48 -6 76 -9 60 -7
145 -31 153 -43 3 -5 26 -24 51 -43 25 -19 53 -42 63 -51 21 -19 57 -31 57
-20 0 9 31 8 48 -3 6 -4 12 -3 12 2 0 5 19 9 43 8 77 -2 116 -66 79 -131 -6
-12 -6 -31 0 -54 6 -20 11 -66 12 -102 0 -41 5 -65 11 -62 9 3 12 104 5 123
-1 3 -2 8 -1 13 0 4 -3 7 -7 7 -10 0 -9 50 1 66 26 43 6 144 -28 144 -8 0 -15
4 -15 8 0 4 -41 8 -92 8 -81 -1 -95 2 -117 21 -72 62 -87 74 -103 79 -10 3
-18 9 -18 13 0 11 -45 29 -85 35 -16 2 -30 5 -30 6 0 1 -20 3 -44 5 -23 2 -49
9 -55 14 -9 7 -17 7 -26 -2 -10 -9 -11 -9 -6 0 5 10 -41 12 -209 12 -118 0
-215 -4 -215 -9z"/>
<path d="M660 1239 c-102 -6 -150 -16 -150 -30 0 -5 -6 -9 -13 -9 -7 0 -43
-29 -80 -65 -37 -36 -65 -65 -62 -65 4 0 -1 -7 -10 -16 -20 -21 -14 -27 27
-26 18 0 39 -5 47 -11 12 -9 13 -9 8 0 -10 16 121 14 142 -1 11 -8 13 -8 8 0
-5 8 15 11 67 10 41 0 72 -5 68 -10 -3 -5 1 -5 9 0 20 12 40 14 33 3 -3 -5 -1
-9 5 -9 5 0 12 4 15 9 4 6 117 7 144 2 1 -1 -5 -12 -14 -26 -17 -26 -34 -33
-34 -14 0 5 4 8 8 5 5 -3 9 1 9 9 0 12 -3 12 -14 3 -11 -9 -17 -8 -24 3 -5 8
-9 9 -9 4 0 -6 6 -17 13 -24 10 -10 7 -10 -15 0 -15 6 -25 16 -21 22 3 6 1 7
-6 3 -6 -4 -9 -12 -6 -17 8 -12 -2 -11 -27 2 -15 8 -19 8 -14 0 4 -6 2 -11 -3
-11 -6 0 -11 5 -11 12 0 6 -6 3 -14 -7 -8 -11 -12 -24 -9 -29 4 -5 1 -6 -6 -2
-9 6 -9 11 -1 21 8 9 6 14 -5 19 -9 3 -13 2 -10 -3 3 -5 1 -12 -4 -15 -11 -7
-23 22 -15 37 3 7 -1 4 -9 -6 -8 -10 -19 -17 -23 -16 -24 4 -44 -2 -39 -11 5
-8 11 -8 20 0 10 8 15 8 21 -1 4 -7 3 -9 -4 -5 -6 3 -13 2 -17 -4 -4 -6 -11
-8 -16 -4 -18 11 -97 11 -93 -1 2 -5 18 -11 34 -11 18 -1 27 2 23 9 -3 6 -1 7
6 3 9 -6 9 -11 0 -22 -7 -9 -15 -11 -18 -5 -4 5 -13 4 -24 -4 -11 -8 -14 -15
-7 -18 6 -3 5 -4 -2 -3 -7 2 -11 11 -10 21 3 17 2 17 -15 4 -10 -7 -21 -18
-25 -23 -4 -6 -13 -4 -22 3 -18 15 -22 36 -4 25 7 -5 8 -3 3 6 -5 9 -4 11 4 6
6 -4 18 0 27 8 18 19 4 22 -15 4 -12 -11 -13 -9 -7 7 6 19 5 19 -8 3 -7 -10
-16 -18 -19 -18 -4 0 -4 8 0 18 7 18 5 17 -17 -12 -8 -11 -10 -17 -4 -13 7 4
11 -2 10 -15 -1 -22 -26 -39 -26 -18 0 6 5 8 11 4 7 -4 10 -1 7 7 -3 8 -11 14
-19 15 -41 3 -42 3 -29 19 7 9 10 18 6 22 -3 3 -6 1 -6 -5 0 -7 -5 -12 -12
-12 -6 0 -9 3 -5 6 8 8 -47 64 -63 64 -10 0 -9 4 1 17 12 15 12 16 -1 8 -12
-6 -13 -5 -3 5 19 21 -13 44 -63 45 -24 0 -44 -3 -44 -8 0 -4 -4 -6 -9 -3 -5
3 -12 -1 -15 -10 -3 -9 -11 -12 -18 -8 -9 5 -9 3 1 -9 14 -18 26 -23 16 -8 -3
5 -1 13 5 16 14 9 42 -14 34 -27 -4 -6 4 -5 16 2 12 6 24 9 28 6 3 -3 -1 -6
-9 -6 -12 0 -11 -2 1 -11 13 -9 12 -10 -2 -5 -10 3 -20 1 -23 -5 -4 -5 -3 -9
2 -8 22 4 22 -3 1 -26 -37 -39 -49 -55 -42 -55 3 0 2 -6 -5 -13 -6 -8 -8 -24
-6 -37 2 -13 -1 -30 -8 -39 -10 -12 -9 -13 3 -6 12 6 13 5 3 -6 -15 -15 -18
-33 -5 -25 5 3 9 -1 9 -9 0 -8 -4 -12 -8 -9 -9 5 -6 -62 4 -72 4 -4 2 -13 -4
-21 -9 -10 -8 -13 2 -13 9 0 10 -3 3 -8 -11 -8 -14 -62 -3 -62 4 0 6 -14 5
-30 -1 -16 3 -30 8 -30 6 0 4 -5 -4 -10 -13 -8 -12 -10 3 -10 9 0 17 6 17 13
0 9 2 9 9 -1 6 -10 10 -9 14 7 3 12 2 19 -2 17 -4 -3 -7 4 -7 14 0 10 4 17 7
14 4 -2 10 0 14 6 6 9 -7 14 -27 11 -5 0 -8 4 -8 10 0 6 7 8 16 5 23 -9 37 3
23 20 -9 11 -6 19 15 39 14 13 26 20 26 15 0 -6 9 -10 19 -10 11 0 23 -5 26
-10 5 -8 11 -7 21 1 11 9 14 8 14 -3 0 -9 9 -14 23 -13 12 1 27 0 32 -4 6 -3
26 -6 45 -7 19 -1 30 0 23 3 -7 2 -10 12 -7 21 5 14 2 13 -10 -2 -16 -20 -16
-20 -31 0 -8 10 -15 14 -15 8 0 -11 -30 -16 -30 -5 0 4 9 14 20 24 11 9 20 14
20 10 0 -4 5 -2 12 5 7 7 18 12 26 12 9 0 6 -7 -9 -20 -13 -10 -19 -19 -12
-20 6 0 13 6 16 13 3 9 8 8 23 -3 17 -14 18 -14 6 2 -8 10 -9 19 -3 22 5 4 13
-4 16 -15 7 -21 8 -21 18 -4 9 16 11 15 21 -11 10 -24 13 -26 19 -11 4 12 3
16 -4 11 -7 -4 -9 0 -5 13 5 14 2 20 -11 20 -10 0 -22 -5 -26 -11 -5 -6 -5 -1
-2 12 4 13 2 22 -5 22 -6 0 -9 -4 -6 -9 7 -10 -13 -9 -31 2 -6 4 -15 2 -19 -4
-5 -8 -9 -7 -15 2 -4 8 -3 19 3 26 9 11 14 9 25 -7 8 -11 19 -18 24 -15 13 9
11 26 -2 23 -6 -2 -13 3 -14 10 -2 7 -1 8 2 2 2 -5 10 -7 16 -3 17 11 57 11
50 -1 -4 -5 2 -7 13 -3 18 7 18 6 2 -6 -10 -8 -15 -17 -11 -20 9 -10 33 13 33
32 0 14 2 14 10 1 5 -8 20 -14 33 -15 14 0 34 -9 46 -19 21 -19 30 -9 10 11
-8 8 -8 13 0 18 6 3 11 3 10 -2 -3 -20 2 -25 15 -14 10 8 16 9 21 1 4 -7 13
-7 27 1 12 6 23 7 27 2 5 -8 28 -10 41 -4 18 8 40 8 40 -1 0 -6 7 -5 18 3 9 7
14 9 10 5 -4 -5 -2 -16 5 -24 10 -13 9 -14 -3 -7 -13 8 -13 7 -1 -8 17 -21 1
-22 -25 -1 -10 8 -14 13 -7 10 6 -4 15 -1 19 6 4 7 4 10 -1 6 -4 -4 -16 -3
-27 3 -18 10 -18 9 -8 -11 11 -20 10 -21 -9 -10 -12 6 -27 8 -33 4 -7 -5 -8
-3 -3 6 5 8 4 11 -3 6 -6 -4 -9 -13 -5 -22 8 -22 -19 -13 -35 11 l-13 20 5
-20 c6 -20 6 -20 -9 -1 -11 14 -15 16 -15 5 0 -12 -2 -12 -10 1 -5 8 -10 11
-9 5 0 -17 48 -70 55 -62 4 4 2 7 -4 7 -7 0 -12 4 -12 8 0 14 133 10 148 -5 7
-7 19 -13 25 -12 9 0 8 2 0 6 -23 9 -14 24 11 19 13 -2 35 2 50 9 25 13 25 13
22 -16 -2 -16 1 -26 6 -23 5 3 7 12 4 20 -3 7 -1 16 4 19 6 4 10 -1 10 -9 0
-8 4 -18 10 -21 6 -3 7 1 4 10 -8 20 16 16 33 -5 7 -8 13 -11 13 -6 0 5 8 2
18 -5 15 -13 16 -12 4 3 -9 11 -10 18 -2 23 5 3 10 2 10 -2 0 -5 10 -9 23 -10
22 -2 22 -2 -2 11 -14 8 -19 16 -13 20 6 3 13 2 17 -4 4 -6 11 -8 16 -5 5 4 9
1 9 -6 0 -7 6 -5 13 6 10 12 16 14 21 7 4 -7 2 -12 -3 -12 -6 0 -11 -8 -11
-17 0 -14 4 -12 17 7 20 29 25 50 12 50 -5 0 -9 -6 -9 -12 0 -9 -4 -8 -10 2
-5 8 -10 10 -10 4 0 -6 -6 -11 -14 -11 -14 0 -16 21 -3 34 13 12 36 12 31 -1
-3 -7 4 -12 16 -12 11 0 19 5 16 11 -5 14 46 14 56 0 4 -5 12 2 18 15 10 25
10 25 5 -3 -5 -26 -4 -27 17 -15 13 7 27 18 31 23 5 6 5 -1 2 -13 -6 -22 -5
-23 15 -12 18 9 25 8 41 -6 10 -9 19 -14 19 -10 0 4 9 2 20 -4 14 -8 20 -8 20
0 0 7 5 6 14 -2 19 -17 9 -30 -13 -18 -10 5 -28 7 -40 5 -12 -2 -19 0 -17 4 3
4 -1 8 -9 8 -8 0 -12 -5 -9 -11 3 -6 0 -4 -8 5 -16 19 -45 21 -52 2 -5 -11 -1
-11 17 -2 19 11 20 10 10 -2 -7 -9 -9 -20 -3 -29 8 -12 10 -12 15 1 3 9 13 16
21 16 8 0 13 -6 10 -14 -3 -7 -1 -13 4 -13 6 0 10 6 10 13 0 7 10 13 21 14
l21 2 -21 -23 c-11 -12 -21 -29 -21 -37 0 -8 3 -10 8 -4 4 6 16 11 27 12 11 2
29 5 40 7 11 3 24 5 29 5 4 1 5 9 2 18 -6 15 -5 15 13 -1 18 -16 20 -16 32 2
14 19 49 26 49 9 0 -5 -7 -7 -14 -4 -10 4 -13 1 -10 -8 3 -8 13 -11 22 -9 15
5 15 4 0 -6 -10 -6 -18 -16 -18 -22 0 -7 5 -6 15 2 9 8 15 8 15 2 0 -6 -6 -13
-12 -15 -10 -4 -10 -8 1 -15 10 -7 7 -12 -15 -21 l-29 -11 28 4 c15 2 30 -1
33 -6 3 -4 2 -8 -3 -7 -34 6 -38 -12 -13 -50 11 -15 19 -18 29 -12 13 8 13 12
0 27 -9 11 -9 15 -1 10 9 -5 12 3 13 31 0 21 2 59 3 85 1 27 -2 44 -8 41 -5
-3 -6 -1 -2 5 13 22 16 55 5 69 -7 8 -8 13 -2 13 11 0 2 59 -15 100 -5 14 -26
42 -46 64 -38 41 -42 51 -26 61 6 3 7 -1 4 -9 -9 -23 40 -21 57 2 11 14 11 15
-1 5 -19 -17 -37 -16 -37 2 0 8 9 15 20 15 14 0 17 5 13 18 -6 15 -5 15 8 -1
8 -10 17 -14 20 -9 8 13 -21 25 -61 26 -17 1 -35 4 -38 8 -11 10 -45 -25 -45
-46 0 -26 -49 -96 -66 -96 -8 0 -14 -5 -14 -11 0 -5 6 -7 13 -3 8 5 8 2 -2 -9
-7 -9 -20 -17 -28 -17 -8 0 -11 -4 -8 -10 4 -6 -1 -7 -12 -3 -15 6 -14 8 9 18
24 9 25 12 14 34 -11 20 -14 21 -19 7 -4 -10 -3 -15 3 -11 6 3 10 1 10 -4 0
-6 -6 -11 -14 -11 -7 0 -21 -10 -29 -22 -10 -14 -19 -19 -24 -13 -4 6 -17 17
-27 25 -18 14 -19 13 -13 -2 9 -24 -12 -34 -31 -14 -14 13 -14 18 -3 28 11 10
12 10 7 1 -5 -9 -2 -11 9 -7 13 5 12 9 -6 25 -12 11 -27 19 -32 19 -6 0 -2 -7
9 -15 22 -17 3 -21 -26 -5 -13 7 -21 7 -26 -2 -4 -6 -3 -8 3 -5 6 4 18 0 28
-7 14 -10 15 -15 5 -21 -9 -5 -11 -4 -6 3 4 7 2 13 -3 13 -6 1 -16 2 -22 3 -6
0 -17 10 -25 20 -8 11 -23 20 -34 21 -16 1 -18 -1 -7 -14 10 -12 9 -13 -1 -7
-7 4 -20 2 -29 -6 -14 -12 -15 -11 -5 8 9 16 8 21 -3 21 -8 0 -12 -4 -10 -8 3
-4 -2 -10 -11 -13 -8 -3 -12 -11 -8 -17 4 -8 3 -9 -4 -5 -8 5 -9 13 -3 25 7
13 6 18 -4 18 -8 0 -12 -4 -9 -9 3 -4 -2 -8 -11 -8 -10 0 -13 -5 -9 -12 4 -7
3 -8 -5 -4 -9 6 -9 11 -1 21 8 10 8 15 -1 21 -7 4 -9 3 -5 -4 3 -6 -3 -13 -14
-17 -11 -4 -18 -10 -15 -15 3 -5 1 -11 -4 -14 -11 -7 -9 13 3 32 7 11 4 12
-11 3 -15 -7 -25 -7 -38 2 -15 12 -15 14 -1 26 9 8 16 9 16 4 0 -5 10 -9 23
-7 12 1 22 3 22 4 0 1 8 3 18 5 9 2 17 0 17 -5 0 -8 43 -5 59 5 6 3 11 2 11
-3 0 -7 33 -8 50 -2 15 6 36 4 42 -5 5 -6 8 -5 8 4 0 11 3 11 17 0 9 -8 14 -9
11 -4 -7 12 65 11 84 -1 7 -4 8 -3 4 4 -9 14 -9 14 32 3 22 -7 32 -6 32 2 0 8
3 8 11 0 7 -7 20 -8 33 -4 11 5 29 7 39 6 30 -5 19 17 -27 53 -16 12 -25 22
-21 22 4 0 -26 27 -65 60 -39 33 -78 60 -86 60 -8 0 -14 3 -14 8 0 13 -420 22
-590 11z m265 -249 c3 -5 1 -10 -4 -10 -6 0 -11 5 -11 10 0 6 2 10 4 10 3 0 8
-4 11 -10z m-146 -30 c-6 -5 -18 -6 -26 -3 -19 8 -16 11 13 11 17 0 22 -3 13
-8z m51 0 c0 -5 -2 -10 -4 -10 -3 0 -8 5 -11 10 -3 6 -1 10 4 10 6 0 11 -4 11
-10z m109 0 c-6 -5 -18 -6 -26 -3 -19 8 -16 11 13 11 17 0 22 -3 13 -8z m-485
-58 c3 -5 -1 -9 -9 -9 -8 0 -12 4 -9 9 3 4 7 8 9 8 2 0 6 -4 9 -8z m61 -2 c-3
-5 -12 -10 -18 -10 -7 0 -6 4 3 10 19 12 23 12 15 0z m800 0 c-3 -5 -12 -10
-18 -10 -7 0 -6 4 3 10 19 12 23 12 15 0z m263 -60 c-7 -10 -14 -17 -17 -15
-4 4 18 35 25 35 2 0 -1 -9 -8 -20z m-1335 -5 c4 -8 1 -17 -5 -21 -7 -5 -8 -2
-3 6 6 10 4 12 -10 6 -15 -5 -16 -4 -5 9 15 19 16 19 23 0z m1378 -28 c-6 -6
-17 -12 -23 -12 -6 0 -13 -6 -16 -14 -3 -9 0 -11 9 -5 12 6 12 5 0 -9 -13 -17
-15 -17 -34 0 -19 17 -19 17 -13 -3 4 -15 2 -24 -9 -28 -8 -3 -15 0 -15 6 0
17 -11 3 -14 -19 -2 -12 -11 -18 -27 -18 -13 0 -30 -4 -36 -8 -19 -12 -16 8 4
24 13 11 17 12 21 1 3 -10 8 -8 17 5 9 12 10 22 4 30 -7 8 -5 11 5 9 9 -1 19
-5 22 -9 11 -11 26 -8 19 3 -10 16 14 40 32 33 11 -4 14 -2 9 5 -4 7 1 10 14
7 12 -2 23 2 27 11 3 8 8 12 11 9 3 -3 0 -11 -7 -18z m-1397 -25 c-5 -14 -2
-13 13 3 16 19 19 19 33 5 20 -22 23 -53 3 -46 -8 3 -19 6 -24 6 -6 0 -7 5 -4
10 4 6 11 8 16 5 5 -4 9 -2 9 3 0 18 -14 21 -31 6 -16 -14 -18 -14 -28 4 -11
20 -5 35 10 26 4 -2 6 -12 3 -22z m709 4 c9 1 17 -2 17 -7 0 -5 5 -9 11 -9 5
0 7 6 3 13 -6 9 -4 9 7 1 12 -9 33 -11 42 -4 8 6 37 7 37 0 0 -5 8 -7 18 -5 9
2 17 4 17 5 0 1 11 4 25 6 24 4 24 4 5 -11 -14 -10 -15 -13 -4 -9 10 3 19 -2
23 -12 5 -13 4 -14 -7 -6 -11 9 -19 6 -37 -13 l-24 -26 -13 23 c-8 15 -12 18
-13 8 0 -13 -1 -13 -10 0 -5 8 -10 11 -10 7 0 -4 -9 -3 -19 3 -14 7 -22 7 -26
-1 -4 -6 -13 -8 -21 -5 -8 3 -14 2 -14 -3 0 -4 -7 -8 -15 -8 -8 0 -15 4 -15 9
0 5 -4 7 -8 4 -4 -2 -7 7 -6 22 2 36 3 39 12 26 4 -6 15 -10 25 -8z m-619 -37
c-9 -15 4 -41 17 -33 8 5 8 9 -1 14 -10 6 -10 12 0 26 11 18 11 18 5 -1 -3
-11 -3 -16 1 -12 4 4 12 -1 19 -9 11 -15 12 -15 12 0 0 9 -4 16 -9 16 -4 0 -8
5 -8 11 0 8 5 8 15 -1 12 -10 15 -10 16 1 0 10 2 11 6 2 2 -7 9 -13 14 -13 6
0 7 5 4 10 -10 17 2 11 16 -7 7 -10 9 -15 4 -10 -4 4 -19 -2 -31 -14 -13 -12
-30 -19 -38 -16 -9 4 -18 2 -22 -4 -4 -7 -12 -5 -23 5 -10 9 -21 13 -26 9 -4
-5 -4 -1 1 7 5 8 9 18 10 23 1 4 2 10 3 13 0 3 6 2 11 -1 6 -4 8 -11 4 -16z
m-66 -27 c4 -12 3 -13 -35 -17 -18 -2 -21 1 -13 16 11 19 42 19 48 1z m-28
-56 c14 -18 14 -18 -7 -6 -12 8 -19 18 -16 23 3 4 6 7 7 5 1 -2 8 -12 16 -22z"/>
<path d="M1550 786 c0 -2 8 -10 18 -17 15 -13 16 -12 3 4 -13 16 -21 21 -21
13z"/>
<path d="M906 765 c5 -12 58 -15 69 -4 3 4 -6 5 -20 4 -14 -2 -25 0 -25 4 0 4
-6 8 -14 8 -8 0 -12 -5 -10 -12z"/>
<path d="M1016 773 c-3 -3 -6 -11 -6 -17 0 -6 5 -4 10 4 8 12 10 12 10 1 0 -8
3 -11 7 -8 3 4 14 0 24 -9 18 -16 31 -7 35 24 2 11 0 11 -13 0 -9 -7 -19 -11
-22 -10 -28 17 -39 20 -45 15z m74 -19 c0 -8 -19 -13 -24 -6 -3 5 1 9 9 9 8 0
15 -2 15 -3z"/>
<path d="M1276 987 c3 -10 9 -15 12 -12 3 3 0 11 -7 18 -10 9 -11 8 -5 -6z"/>
<path d="M402 970 c-7 -11 -9 -20 -4 -20 4 0 13 9 20 20 7 11 9 20 4 20 -4 0
-13 -9 -20 -20z"/>
<path d="M1330 980 c0 -5 -7 -10 -15 -10 -22 0 -18 -16 9 -33 22 -15 25 -15
32 1 4 9 9 26 11 37 4 19 3 19 -11 0 -8 -11 -12 -24 -9 -30 3 -5 0 -5 -7 2
-11 10 -11 15 0 28 8 10 9 15 1 15 -6 0 -11 -4 -11 -10z"/>
<path d="M64 952 c-14 -9 -13 -229 1 -229 6 0 10 11 10 24 0 13 -2 23 -5 23
-3 0 -5 23 -5 50 0 28 3 50 7 50 3 0 5 8 3 18 -1 9 2 22 7 29 6 7 5 14 -3 18
-8 6 -7 10 2 16 8 5 10 9 4 9 -5 0 -15 -4 -21 -8z"/>
<path d="M486 945 c-11 -8 -18 -17 -15 -19 2 -3 15 4 29 14 14 11 21 20 15 19
-5 0 -19 -6 -29 -14z"/>
<path d="M1270 930 c0 -5 5 -10 11 -10 5 0 7 5 4 10 -3 6 -8 10 -11 10 -2 0
-4 -4 -4 -10z"/>
<path d="M1719 808 c-5 -19 -8 -50 -4 -46 7 7 15 48 9 48 -2 0 -4 -1 -5 -2z"/>
<path d="M510 775 c25 -27 40 -35 20 -10 -7 8 -9 15 -4 15 12 0 -18 20 -30 20
-5 0 1 -11 14 -25z"/>
<path d="M1155 780 c-3 -5 -1 -10 4 -10 6 0 11 5 11 10 0 6 -2 10 -4 10 -3 0
-8 -4 -11 -10z"/>
<path d="M1230 775 c-16 -20 -22 -65 -9 -65 6 0 7 5 4 10 -3 6 1 10 9 10 8 0
20 -8 25 -17 6 -10 11 -13 11 -7 0 5 -5 15 -11 21 -8 8 -8 16 0 30 8 12 11 13
9 3 -2 -9 1 -16 6 -17 5 -1 13 -8 18 -17 5 -8 15 -13 24 -9 11 4 12 8 4 13 -9
6 -9 13 -1 29 12 21 -2 31 -14 11 -4 -7 -13 -7 -26 0 -10 6 -19 7 -19 3 0 -4
-4 -2 -9 5 -6 10 -11 10 -21 -3z m14 -26 c-3 -5 -10 -7 -15 -3 -5 3 -7 10 -3
15 3 5 10 7 15 3 5 -3 7 -10 3 -15z m61 2 c-9 -8 -36 -10 -30 -2 2 4 11 8 20
8 8 0 13 -3 10 -6z"/>
<path d="M561 767 c-7 -7 -5 -19 5 -38 8 -16 17 -29 20 -29 2 0 0 9 -6 20 -8
14 -8 25 0 38 8 13 10 13 9 2 -2 -16 17 -70 25 -70 2 0 2 10 -1 23 -3 16 -2
18 5 8 7 -9 12 -10 16 -2 4 6 2 12 -3 12 -10 1 -18 3 -38 8 -11 3 29 19 47 20
13 1 13 -1 0 -10 -12 -9 -12 -10 4 -5 14 5 17 2 12 -11 -4 -9 -1 -20 6 -25 23
-14 33 -9 12 7 -17 13 -17 14 -2 15 9 0 22 -8 27 -17 6 -10 10 -13 10 -8 0 6
-6 19 -14 29 -8 11 -15 16 -15 11 0 -4 -9 0 -20 10 -23 21 -83 28 -99 12z"/>
<path d="M750 764 c0 -8 5 -12 10 -9 6 4 8 11 5 16 -9 14 -15 11 -15 -7z"/>
<path d="M1370 776 c0 -2 7 -7 16 -10 8 -3 12 -2 9 4 -6 10 -25 14 -25 6z"/>
<path d="M50 699 c0 -5 5 -7 10 -4 6 3 10 8 10 11 0 2 -4 4 -10 4 -5 0 -10 -5
-10 -11z"/>
<path d="M760 706 c0 -2 7 -7 16 -10 8 -3 12 -2 9 4 -6 10 -25 14 -25 6z"/>
<path d="M850 700 c0 -5 5 -10 11 -10 5 0 7 5 4 10 -3 6 -8 10 -11 10 -2 0 -4
-4 -4 -10z"/>
<path d="M920 706 c0 -2 7 -7 16 -10 8 -3 12 -2 9 4 -6 10 -25 14 -25 6z"/>
<path d="M1150 701 c0 -6 4 -13 10 -16 6 -3 7 1 4 9 -7 18 -14 21 -14 7z"/>
<path d="M1190 700 c0 -5 5 -10 11 -10 5 0 7 5 4 10 -3 6 -8 10 -11 10 -2 0
-4 -4 -4 -10z"/>
<path d="M1236 701 c-3 -5 1 -14 8 -20 10 -9 16 -9 21 -1 4 6 1 9 -7 8 -7 -2
-12 3 -10 10 2 14 -4 16 -12 3z"/>
<path d="M1312 690 c-14 -14 -22 -16 -22 -8 -1 7 -8 1 -16 -15 -12 -23 -18
-26 -34 -17 -15 8 -18 7 -14 -3 2 -7 16 -13 29 -13 13 0 22 2 20 5 -8 8 35 32
45 26 6 -3 10 -1 10 5 0 6 5 8 10 5 6 -3 10 -1 10 4 0 6 -5 11 -11 11 -5 0 -7
5 -4 10 10 16 1 12 -23 -10z"/>
<path d="M1374 703 c4 -7 2 -13 -3 -13 -6 0 -11 -4 -11 -10 0 -12 27 -13 34
-1 3 5 -2 15 -11 22 -12 10 -14 10 -9 2z"/>
<path d="M486 685 c3 -7 13 -16 22 -19 9 -3 27 -10 39 -15 16 -7 23 -6 27 4 3
9 0 12 -8 9 -7 -3 -20 1 -27 9 -20 19 -59 28 -53 12z"/>
<path d="M1555 690 c-3 -6 1 -7 9 -4 18 7 21 14 7 14 -6 0 -13 -4 -16 -10z"/>
<path d="M1026 678 c3 -5 10 -6 15 -3 13 9 11 12 -6 12 -8 0 -12 -4 -9 -9z"/>
<path d="M1705 680 c3 -5 8 -10 11 -10 2 0 4 5 4 10 0 6 -5 10 -11 10 -5 0 -7
-4 -4 -10z"/>
<path d="M1573 665 c0 -8 6 -16 14 -19 11 -4 11 -1 3 14 -13 24 -17 25 -17 5z"/>
<path d="M597 643 c3 -7 6 -13 8 -13 2 0 5 6 8 13 3 8 -1 14 -8 14 -7 0 -11
-6 -8 -14z"/>
<path d="M691 653 c-1 -18 13 -23 29 -11 12 8 12 9 -2 5 -9 -3 -19 -1 -22 6
-3 9 -5 9 -5 0z"/>
<path d="M1181 642 c7 -11 19 -18 26 -15 13 5 9 18 -5 18 -4 0 -13 4 -20 9
-11 7 -11 4 -1 -12z"/>
<path d="M630 640 c0 -5 5 -10 10 -10 6 0 10 5 10 10 0 6 -4 10 -10 10 -5 0
-10 -4 -10 -10z"/>
<path d="M660 641 c0 -5 7 -11 14 -14 10 -4 13 -1 9 9 -6 15 -23 19 -23 5z"/>
<path d="M1075 639 c-4 -6 -13 -8 -21 -5 -8 3 -11 0 -8 -9 5 -11 10 -12 25 -2
10 6 19 15 19 19 0 11 -8 10 -15 -3z"/>
<path d="M753 625 c0 -6 6 -12 12 -12 6 0 12 6 12 12 0 6 -6 12 -12 12 -6 0
-12 -6 -12 -12z"/>
<path d="M810 632 c0 -13 27 -23 45 -16 8 4 15 1 15 -6 0 -9 4 -9 13 -2 6 6
16 10 22 10 5 0 11 6 13 14 2 8 1 9 -5 3 -9 -13 -72 -14 -90 -2 -7 5 -13 4
-13 -1z"/>
<path d="M956 633 c-3 -3 -6 -11 -6 -17 0 -6 5 -4 10 4 7 11 10 12 10 2 0 -9
7 -11 21 -7 16 6 20 4 13 -6 -6 -11 -5 -12 8 -2 8 7 18 11 21 8 4 -3 4 -2 1 3
-3 4 -15 7 -27 7 -12 1 -27 4 -33 8 -6 3 -14 4 -18 0z"/>
<path d="M790 621 c0 -6 4 -13 10 -16 6 -3 7 1 4 9 -7 18 -14 21 -14 7z"/>
<path d="M1095 620 c-3 -5 -1 -10 4 -10 6 0 11 5 11 10 0 6 -2 10 -4 10 -3 0
-8 -4 -11 -10z"/>
<path d="M586 602 c-3 -5 1 -9 9 -9 8 0 15 4 15 9 0 4 -4 8 -9 8 -6 0 -12 -4
-15 -8z"/>
<path d="M552 585 c4 -4 3 -14 -2 -20 -12 -14 -2 -48 11 -39 5 3 9 10 9 15 0
6 -4 7 -10 4 -13 -8 -13 8 1 22 8 8 7 13 -3 18 -7 5 -10 5 -6 0z"/>
<path d="M644 578 c-4 -5 -3 -12 0 -15 3 -4 6 -2 6 3 0 5 11 11 26 12 15 1 23
-2 19 -8 -4 -6 7 -18 24 -28 17 -9 31 -24 31 -32 -1 -12 -3 -11 -11 3 -5 9
-17 17 -26 17 -9 0 -21 7 -28 16 -10 14 -14 14 -26 3 -25 -24 -41 -22 -35 3 3
13 3 17 0 11 -3 -7 -12 -13 -19 -13 -7 0 -16 6 -18 13 -4 9 -6 9 -6 0 -1 -7 8
-17 19 -23 11 -6 20 -16 19 -23 0 -9 -2 -9 -6 1 -6 15 -35 16 -50 1 -8 -8 -15
-6 -25 10 -14 23 -38 29 -38 9 0 -6 3 -8 7 -5 8 8 33 -12 33 -26 0 -6 -7 -2
-15 9 -14 19 -14 19 -15 -1 -1 -18 -2 -19 -9 -2 -8 22 -21 24 -32 5 -7 -10 -9
-10 -9 0 0 6 -5 12 -12 12 -6 0 -20 8 -31 18 -19 16 -20 16 -8 -5 7 -14 8 -24
1 -28 -5 -3 -10 -3 -10 1 0 4 -7 -1 -15 -12 -12 -15 -14 -16 -9 -2 5 13 1 16
-15 13 -12 -2 -20 -1 -17 3 2 4 -2 13 -10 20 -8 7 -14 9 -15 5 0 -4 -4 1 -9
12 -8 18 -9 18 -9 2 -1 -10 6 -20 14 -23 8 -4 15 -14 14 -23 0 -10 -2 -11 -6
-3 -2 6 -10 9 -15 6 -7 -4 -8 -2 -4 4 5 8 -1 12 -16 12 -18 0 -20 -2 -8 -10 8
-5 10 -10 4 -10 -6 0 -13 3 -17 6 -8 8 3 35 12 29 4 -2 8 2 8 9 0 7 -6 13 -13
13 -7 0 -11 -3 -9 -7 2 -3 -5 -19 -16 -36 -10 -16 -19 -23 -19 -16 0 7 -4 11
-9 8 -5 -3 -14 1 -20 8 -9 11 -9 14 1 12 7 -1 19 -5 25 -9 9 -6 11 -3 7 7 -7
18 -46 16 -52 -2 -2 -7 -8 -10 -13 -7 -5 4 -6 -1 -3 -9 3 -9 10 -13 15 -10 5
3 9 0 9 -6 0 -7 7 -9 16 -6 8 3 13 2 10 -3 -9 -14 20 -21 34 -8 10 9 11 9 6 0
-5 -9 2 -13 23 -13 17 0 31 -4 31 -8 0 -10 269 -14 284 -4 16 10 36 11 36 3 0
-5 98 -7 218 -5 119 3 332 6 472 8 140 2 263 7 272 11 9 3 24 19 34 33 9 15
13 24 9 20 -4 -4 -13 0 -20 9 -9 13 -14 13 -20 3 -5 -8 -4 -11 2 -7 5 3 10 0
10 -8 0 -10 -4 -12 -12 -5 -7 6 -16 5 -23 -2 -7 -7 -12 -8 -12 -4 0 5 -8 2
-17 -5 -10 -7 -15 -9 -11 -5 4 5 2 16 -5 24 -10 13 -9 14 2 7 10 -5 12 -4 7 4
-4 6 -12 8 -18 5 -8 -5 -9 -1 -4 12 5 14 4 16 -4 8 -8 -8 -8 -19 0 -40 9 -27
9 -28 -5 -10 -14 19 -21 11 -16 -17 1 -5 -3 -6 -8 -2 -6 3 -7 13 -4 22 4 10 2
14 -5 9 -6 -3 -13 -2 -17 4 -4 6 -11 8 -16 5 -9 -6 -12 3 -12 37 0 10 -3 16
-7 13 -9 -5 -7 -33 5 -58 4 -11 3 -23 -3 -29 -8 -8 -9 -5 -5 11 3 13 1 21 -8
21 -7 0 -22 8 -33 18 -20 17 -20 17 -2 -12 10 -16 13 -25 7 -22 -6 4 -11 1
-11 -6 0 -8 -5 -6 -11 5 -8 14 -14 16 -25 6 -8 -6 -14 -8 -14 -3 0 4 -7 -1
-16 -12 -15 -18 -15 -18 -5 2 8 17 6 25 -11 40 -21 19 -21 19 -8 -3 12 -18 12
-24 0 -37 -12 -15 -14 -15 -31 0 -15 14 -19 14 -19 3 -1 -10 -4 -9 -11 4 -13
22 -49 22 -50 0 0 -15 -2 -15 -7 -3 -8 17 -32 25 -32 10 0 -5 -5 -10 -11 -10
-5 0 -8 4 -5 9 3 5 -3 11 -15 14 -17 5 -18 3 -7 -11 8 -9 8 -13 1 -9 -6 4 -14
1 -17 -5 -4 -9 -5 -8 -5 2 2 30 -1 41 -11 35 -6 -4 -7 -12 -3 -18 4 -7 -1 -6
-11 2 -13 11 -14 16 -4 22 9 6 9 9 1 9 -6 0 -15 -5 -18 -10 -4 -6 -11 -8 -16
-4 -6 3 -2 12 10 20 18 13 24 13 48 -3 15 -10 24 -12 20 -5 -5 6 -5 12 0 13 4
0 16 2 25 4 27 5 32 -14 7 -23 -18 -7 -19 -10 -6 -15 15 -6 33 17 28 37 -1 4
10 5 24 2 14 -4 25 -3 25 2 0 11 -95 10 -106 0 -10 -10 -27 -10 -20 0 2 4 -4
8 -14 9 -11 1 -22 -2 -25 -8 -4 -5 -11 -9 -16 -9 -6 0 -8 4 -4 9 3 6 -4 8 -16
6 -27 -5 -41 -18 -14 -13 11 1 20 -1 20 -7 1 -19 16 -35 27 -29 7 5 8 2 3 -6
-5 -9 -4 -11 3 -6 7 4 12 2 12 -3 0 -14 -17 -14 -25 -1 -3 6 -11 10 -16 10 -6
0 -7 -6 -2 -12 10 -17 14 -42 5 -33 -4 4 -8 11 -8 16 -1 5 -3 11 -4 14 -1 3
-3 11 -4 18 0 6 -10 12 -21 12 -11 0 -23 5 -27 10 -5 6 -8 5 -8 -3 0 -7 -4
-11 -9 -7 -5 3 -12 1 -15 -4 -4 -5 -1 -13 5 -17 8 -5 9 -3 4 7 -7 11 -5 11 10
-1 10 -8 16 -10 13 -5 -4 6 2 12 13 12 21 2 23 -5 9 -27 -5 -8 -10 -10 -10 -4
0 14 -42 13 -53 -1 -4 -6 -7 -2 -5 9 2 10 -3 21 -11 24 -8 2 -11 0 -8 -5 3 -5
1 -15 -5 -23 -8 -12 -9 -12 -4 2 3 11 -2 19 -15 23 -11 4 -16 11 -12 18 4 8 1
7 -9 -1 -10 -8 -18 -9 -22 -3 -4 6 -13 8 -21 4 -25 -9 -17 -20 15 -19 16 1 30
-3 30 -8 1 -13 -28 -17 -36 -5 -3 6 -12 5 -22 -3 -9 -7 -13 -8 -9 -2 4 7 -7
18 -28 28 -36 17 -40 37 -7 31 9 -2 21 -4 25 -4 5 -1 5 -6 1 -12 -4 -7 3 -6
17 2 13 7 27 12 32 11 4 -1 7 3 7 8 0 6 -4 10 -9 10 -6 0 -13 -4 -16 -10 -3
-5 -11 -10 -16 -10 -6 0 -8 4 -5 8 2 4 -22 8 -55 8 -33 0 -62 -4 -65 -8z m31
-38 c-3 -5 -1 -10 4 -10 6 0 11 -5 11 -11 0 -8 -4 -8 -14 0 -9 8 -16 8 -20 2
-4 -5 3 -13 15 -16 11 -4 18 -9 16 -11 -7 -7 -57 18 -57 28 0 5 4 7 9 4 5 -3
14 1 21 9 14 17 24 20 15 5z m779 -26 c3 -8 2 -12 -4 -9 -6 3 -10 10 -10 16 0
14 7 11 14 -7z m-964 -14 c0 -5 -5 -10 -11 -10 -5 0 -7 5 -4 10 3 6 8 10 11
10 2 0 4 -4 4 -10z m240 0 c0 -5 -5 -10 -11 -10 -5 0 -7 5 -4 10 3 6 8 10 11
10 2 0 4 -4 4 -10z m120 0 c0 -5 -5 -10 -11 -10 -5 0 -7 5 -4 10 3 6 8 10 11
10 2 0 4 -4 4 -10z"/>
<path d="M893 578 c3 -9 1 -19 -6 -22 -9 -3 -9 -5 0 -5 18 -1 23 13 11 29 -8
12 -9 12 -5 -2z"/>
<path d="M935 580 c-3 -5 -1 -10 4 -10 6 0 11 5 11 10 0 6 -2 10 -4 10 -3 0
-8 -4 -11 -10z"/>
<path d="M343 555 c10 -20 23 -30 40 -30 15 -1 24 2 21 7 -3 4 -10 5 -16 2 -6
-4 -8 2 -4 17 3 13 3 18 0 12 -8 -18 -24 -16 -41 5 -12 14 -12 12 0 -13z"/>
<path d="M1253 569 c-6 -6 -9 -17 -7 -24 3 -6 -2 -12 -11 -12 -11 0 -14 6 -9
21 4 16 3 17 -4 7 -6 -8 -17 -11 -28 -7 -13 4 -11 0 6 -13 14 -11 27 -18 29
-15 2 2 12 -3 22 -12 23 -21 37 1 15 25 -12 13 -13 20 -4 29 7 7 10 12 7 12
-3 0 -10 -5 -16 -11z"/>
<path d="M1306 551 c16 -33 17 -34 30 -16 8 10 14 24 13 29 0 6 -3 5 -6 -1 -7
-18 -23 -16 -40 5 -9 11 -8 5 3 -17z"/>
<path d="M1536 566 c3 -9 11 -16 16 -16 6 0 6 -6 -1 -14 -10 -12 -9 -14 6 -11
10 1 17 8 16 14 -2 6 2 11 7 11 6 0 10 4 10 9 0 5 -8 8 -17 6 -10 -1 -24 2
-31 8 -9 7 -11 6 -6 -7z"/>
<path d="M430 562 c0 -4 9 -13 20 -20 11 -7 20 -9 20 -4 0 4 -9 13 -20 20 -11
7 -20 9 -20 4z"/>
<path d="M475 560 c3 -5 8 -10 11 -10 2 0 4 5 4 10 0 6 -5 10 -11 10 -5 0 -7
-4 -4 -10z"/>
<path d="M1146 542 c-3 -5 1 -9 9 -9 8 0 15 4 15 9 0 4 -4 8 -9 8 -6 0 -12 -4
-15 -8z"/>
<path d="M1460 542 c0 -5 7 -9 15 -9 8 0 15 4 15 9 0 4 -7 8 -15 8 -8 0 -15
-4 -15 -8z"/>
</g>
</svg>
